<svg width="29" height="44" viewBox="0 0 124 170" fill="none" xmlns="http://www.w3.org/2000/svg">
<path d="M11.08 141.145C10.384 143.851 9.63999 146.829 9.39999 147.753C9.13599 148.678 8.96799 149.445 8.99199 149.468C9.01599 149.49 12.376 150.144 16.48 150.911C23.344 152.174 24.688 152.49 23.776 152.49C23.128 152.513 0.495991 156.257 0.375991 156.392C0.231991 156.527 2.89599 169.452 3.13599 169.677C3.20799 169.745 4.14399 169.677 5.19999 169.497C7.33599 169.136 18.736 167.309 37.96 164.219C45.016 163.091 51.928 161.986 53.32 161.738C54.712 161.512 57.64 161.039 59.824 160.7L63.784 160.069L78.304 162.843C86.272 164.354 97.768 166.542 103.84 167.715C109.912 168.865 114.952 169.768 115.072 169.7C115.168 169.655 115.24 169.452 115.24 169.249C115.24 169.068 115.936 166.159 116.8 162.82C117.664 159.46 118.336 156.685 118.288 156.64C118.24 156.573 114.808 155.896 110.656 155.129L103.12 153.708L104.68 153.437C105.544 153.279 107.8 152.919 109.72 152.603C111.64 152.287 114.712 151.791 116.56 151.498C118.408 151.182 120.688 150.821 121.648 150.663C124.024 150.28 124.024 150.302 123.712 148.723C122.608 143.378 121.24 136.836 121.168 136.791C121.144 136.769 120.568 136.836 119.92 136.949C119.248 137.062 114.304 137.874 108.88 138.731C103.48 139.611 94.936 140.964 89.92 141.776C84.904 142.588 76.912 143.851 72.16 144.618L63.52 145.994L58.6 145.069C55.888 144.55 49.744 143.378 44.92 142.453C22.096 138.077 12.496 136.25 12.4 136.25C12.352 136.25 11.752 138.46 11.08 141.145Z" fill="white"/>
</svg>
