<svg width="124" height="169" viewBox="0 0 124 169" fill="none" xmlns="http://www.w3.org/2000/svg">
<path d="M60.6296 0.00530778C60.6296 0.0729744 60.1976 2.28342 59.6936 4.94497C56.5256 21.0948 52.3976 34.38 47.9096 42.7932C46.4456 45.545 44.0456 49.1088 43.1336 49.8756C42.7016 50.2365 42.6776 50.214 42.5336 49.1764C41.6936 43.6503 38.4776 36.7709 34.0616 30.9741C32.3576 28.7636 29.4536 25.4254 29.2136 25.4254C29.1176 25.4254 28.8056 26.3728 28.4936 27.5005C26.7176 34.1093 23.8136 40.8985 17.3096 53.6199C9.07763 69.7471 6.62963 77.213 6.62963 86.4156C6.62963 108.272 21.8696 127.873 44.1656 134.685C45.2216 135 46.1096 135.226 46.1816 135.181C46.2296 135.136 46.0856 134.775 45.8696 134.391C45.0776 132.948 44.0696 130.016 43.4456 127.331C42.8456 124.85 42.7976 124.106 42.7736 120.046C42.7496 115.354 42.9656 113.37 43.9496 108.768C46.0856 98.8212 51.3176 87.9269 58.4216 78.8144C59.5496 77.3709 60.5336 76.1754 60.6056 76.1754C60.9176 76.1754 64.9016 81.4534 66.7016 84.2052C68.7896 87.4081 71.6696 92.7086 73.0136 95.7085C77.7416 106.468 79.6136 117.813 78.0296 126.316C77.6216 128.482 76.2296 132.812 75.4616 134.211C75.1976 134.707 75.0296 135.136 75.1016 135.181C75.3416 135.406 81.1976 133.309 84.2696 131.91C95.3576 126.79 103.734 118.873 109.23 108.317C112.782 101.505 114.294 95.5732 114.558 87.566C114.918 75.5439 111.702 62.7774 105.246 50.6651C103.47 47.2818 100.47 42.2744 100.35 42.3872C100.302 42.4323 100.038 43.4924 99.7736 44.733C97.6616 54.4093 94.2296 62.8902 90.1256 68.5065C88.7096 70.4689 85.9496 73.4688 85.5896 73.4688C85.4936 73.4688 85.5416 72.9274 85.7096 72.2733C87.3176 66.4089 87.7976 57.1385 86.9096 50.011C84.7736 33.1845 75.6296 15.2754 62.0216 1.31353C61.2536 0.524086 60.6296 -0.0623589 60.6296 0.00530778Z" fill="white"/>
<path d="M10.7096 140.166C10.0136 142.872 9.26965 145.85 9.02965 146.774C8.76565 147.699 8.59765 148.466 8.62165 148.489C8.64565 148.511 12.0056 149.165 16.1096 149.932C22.9736 151.195 24.3176 151.511 23.4056 151.511C22.7576 151.534 0.125645 155.278 0.00564524 155.413C-0.138355 155.548 2.52565 168.473 2.76565 168.698C2.83765 168.766 3.77365 168.698 4.82965 168.518C6.96565 168.157 18.3656 166.33 37.5896 163.24C44.6456 162.112 51.5576 161.007 52.9496 160.759C54.3416 160.533 57.2696 160.06 59.4536 159.721L63.4136 159.09L77.9336 161.864C85.9016 163.375 97.3976 165.563 103.47 166.736C109.542 167.886 114.582 168.789 114.702 168.721C114.798 168.676 114.87 168.473 114.87 168.27C114.87 168.089 115.566 165.18 116.43 161.841C117.294 158.481 117.966 155.706 117.918 155.661C117.87 155.594 114.438 154.917 110.286 154.15L102.75 152.729L104.31 152.458C105.174 152.3 107.43 151.94 109.35 151.624C111.27 151.308 114.342 150.812 116.19 150.519C118.038 150.203 120.318 149.842 121.278 149.684C123.654 149.301 123.654 149.323 123.342 147.744C122.238 142.399 120.87 135.857 120.798 135.812C120.774 135.79 120.198 135.857 119.55 135.97C118.878 136.083 113.934 136.895 108.51 137.752C103.11 138.632 94.5656 139.985 89.5496 140.797C84.5336 141.609 76.5416 142.872 71.7896 143.639L63.1496 145.015L58.2296 144.09C55.5176 143.571 49.3736 142.399 44.5496 141.474C21.7256 137.098 12.1256 135.271 12.0296 135.271C11.9816 135.271 11.3816 137.481 10.7096 140.166Z" fill="white"/>
</svg>
