<svg width="29" height="44" viewBox="0 0 28 44" fill="none" xmlns="http://www.w3.org/2000/svg">
<path fill-rule="evenodd" clip-rule="evenodd" d="M5.71867 40L5.50423 17.8H22.7184L22.2901 40H5.71867ZM26.433 40V17.8C27.5394 16.9164 27.5315 16.4674 27.5108 15.2839C27.5077 15.107 27.5043 14.9137 27.5043 14.7V8.7C27.5043 8.5976 27.5047 8.49512 27.5052 8.39272C27.5113 7.02327 27.5173 5.66842 26.433 4.7C25.3114 3.69832 25.1625 3.69846 23.6838 3.69989C23.6261 3.69995 23.5662 3.7 23.5043 3.7L4.25395 3.7C4.19309 3.7 4.13319 3.69994 4.07423 3.69989C2.53636 3.69846 2.12658 3.69761 1.00421 4.7C-0.0319929 5.62544 -0.0120601 6.89327 0.00420297 8.2C0.00623075 8.36293 0.00422285 9.53682 0.00422285 9.7L0.00423135 14.7C0.00423135 16.3428 0.0525378 16.7825 1.32439 17.8L1.57581 40C1.57581 40.9813 2.01229 41.9224 2.78923 42.6163C3.56616 43.3102 4.61992 43.7 5.71867 43.7H22.2901C23.3889 43.7 24.4426 43.3102 25.2195 42.6163C25.9965 41.9224 26.433 40.9813 26.433 40ZM16.0758 32.6V30.75H11.933V32.6C11.933 33.0906 12.1512 33.5612 12.5397 33.9081C12.9281 34.2551 13.455 34.45 14.0044 34.45C14.5538 34.45 15.0806 34.2551 15.4691 33.9081C15.8576 33.5612 16.0758 33.0906 16.0758 32.6ZM22.7184 5.7V14.7H5.50423V5.7H22.7184Z" fill="white"/>
<path fill-rule="evenodd" clip-rule="evenodd" d="M5.71867 40L5.50423 17.8H22.7184L22.2901 40H5.71867ZM26.433 40V17.8C27.5394 16.9164 27.5315 16.4674 27.5108 15.2839C27.5077 15.107 27.5043 14.9137 27.5043 14.7V8.7C27.5043 8.5976 27.5047 8.49512 27.5052 8.39272C27.5113 7.02327 27.5173 5.66842 26.433 4.7C25.3114 3.69832 25.1625 3.69846 23.6838 3.69989C23.6261 3.69995 23.5662 3.7 23.5043 3.7L4.25395 3.7C4.19309 3.7 4.13319 3.69994 4.07423 3.69989C2.53636 3.69846 2.12658 3.69761 1.00421 4.7C-0.0319929 5.62544 -0.0120601 6.89327 0.00420297 8.2C0.00623075 8.36293 0.00422285 9.53682 0.00422285 9.7L0.00423135 14.7C0.00423135 16.3428 0.0525378 16.7825 1.32439 17.8L1.57581 40C1.57581 40.9813 2.01229 41.9224 2.78923 42.6163C3.56616 43.3102 4.61992 43.7 5.71867 43.7H22.2901C23.3889 43.7 24.4426 43.3102 25.2195 42.6163C25.9965 41.9224 26.433 40.9813 26.433 40ZM16.0758 32.6V30.75H11.933V32.6C11.933 33.0906 12.1512 33.5612 12.5397 33.9081C12.9281 34.2551 13.455 34.45 14.0044 34.45C14.5538 34.45 15.0806 34.2551 15.4691 33.9081C15.8576 33.5612 16.0758 33.0906 16.0758 32.6ZM22.7184 5.7V14.7H5.50423V5.7H22.7184Z" fill="white"/>
<path d="M11.933 3.7H16.0758V1.85C16.0758 1.35935 15.8576 0.888796 15.4691 0.541854C15.0806 0.194911 14.5538 -1.10382e-06 14.0044 -1.10382e-06C13.455 -1.10382e-06 12.9281 0.194911 12.5397 0.541854C12.1512 0.888796 11.933 1.35935 11.933 1.85V3.7Z" fill="white"/>
</svg>
