<svg width="29" height="37" viewBox="0 0 29 37" fill="none" xmlns="http://www.w3.org/2000/svg">
<path d="M6.21429 24.05V33.3H22.7857V24.05H6.21429ZM26.9286 22.6366V33.3C26.9286 34.2813 26.4921 35.2224 25.7152 35.9163C24.9382 36.6102 23.8845 37 22.7857 37H6.21429C5.11553 37 4.06178 36.6102 3.28484 35.9163C2.50791 35.2224 2.07143 34.2813 2.07143 33.3V22.6366C0.799571 21.6191 0 20.1428 0 18.5V12.95C0 11.478 0.654717 10.0664 1.82012 9.02556C2.98553 7.98473 4.56615 7.4 6.21429 7.4H22.7857C24.4338 7.4 26.0145 7.98473 27.1799 9.02556C28.3453 10.0664 29 11.478 29 12.95V18.5C29 20.1428 28.2004 21.621 26.9286 22.6366ZM6.21429 11.1C5.66491 11.1 5.13803 11.2949 4.74956 11.6419C4.3611 11.9888 4.14286 12.4593 4.14286 12.95V18.5C4.14286 18.9907 4.3611 19.4612 4.74956 19.8081C5.13803 20.1551 5.66491 20.35 6.21429 20.35H22.7857C23.3351 20.35 23.862 20.1551 24.2504 19.8081C24.6389 19.4612 24.8571 18.9907 24.8571 18.5V12.95C24.8571 12.4593 24.6389 11.9888 24.2504 11.6419C23.862 11.2949 23.3351 11.1 22.7857 11.1H6.21429ZM16.5714 20.35H12.4286V18.5C12.4286 18.0093 12.6468 17.5388 13.0353 17.1919C13.4237 16.8449 13.9506 16.65 14.5 16.65C15.0494 16.65 15.5763 16.8449 15.9647 17.1919C16.3532 17.5388 16.5714 18.0093 16.5714 18.5V20.35ZM16.5714 24.05V25.9C16.5714 26.3906 16.3532 26.8612 15.9647 27.2081C15.5763 27.5551 15.0494 27.75 14.5 27.75C13.9506 27.75 13.4237 27.5551 13.0353 27.2081C12.6468 26.8612 12.4286 26.3906 12.4286 25.9V24.05H16.5714ZM7.25 0C8.07407 0 8.86438 0.292365 9.44708 0.812779C10.0298 1.33319 10.3571 2.03902 10.3571 2.775V8.325C10.3571 9.06098 10.0298 9.76681 9.44708 10.2872C8.86438 10.8076 8.07407 11.1 7.25 11.1C6.42593 11.1 5.63562 10.8076 5.05292 10.2872C4.47022 9.76681 4.14286 9.06098 4.14286 8.325V2.775C4.14286 2.03902 4.47022 1.33319 5.05292 0.812779C5.63562 0.292365 6.42593 0 7.25 0ZM21.75 0C22.5741 0 23.3644 0.292365 23.9471 0.812779C24.5298 1.33319 24.8571 2.03902 24.8571 2.775V8.325C24.8571 9.06098 24.5298 9.76681 23.9471 10.2872C23.3644 10.8076 22.5741 11.1 21.75 11.1C20.9259 11.1 20.1356 10.8076 19.5529 10.2872C18.9702 9.76681 18.6429 9.06098 18.6429 8.325V2.775C18.6429 2.03902 18.9702 1.33319 19.5529 0.812779C20.1356 0.292365 20.9259 0 21.75 0Z" fill="white"/>
</svg>
